Coordinates
version=1
nRows=16
nColumns=22
inDegrees=yes

Units are S.I. units (second, meters, Newtons, ...)
If the header above contains a line with 'inDegrees', this indicates whether rotational values are in degrees (yes) or radians (no).

endheader
time	pelvis_tilt	pelvis_list	pelvis_rotation	pelvis_tx	pelvis_ty	pelvis_tz	hip_flexion_r	hip_adduction_r	hip_rotation_r	knee_angle_r	ankle_angle_r	subtalar_angle_r	hip_flexion_l	hip_adduction_l	hip_rotation_l	knee_angle_l	ankle_angle_l	subtalar_angle_l	lumbar_extension	lumbar_bending	lumbar_rotation
      0.01000000	     -9.31361928	     -0.31701692	    -11.74552076	     -0.99683483	      0.88290424	     -0.03120183	      7.38460128	     -2.52792077	      6.12841646	     -6.27999109	     12.50862272	      0.67788997	      4.86430516	     -6.10108281	    -14.31048113	     -7.84990361	     13.73825383	      5.26813620	      4.68652349	      0.53961697	      9.81204520
      0.02000000	     -9.29544151	     -0.31248690	    -11.75397349	     -0.99685898	      0.88289190	     -0.03120322	      7.38275225	     -2.53507650	      6.14432430	     -6.30634096	     12.52547621	      0.67335730	      4.86300014	     -6.09948776	    -14.26337624	     -7.88677444	     13.75410966	      5.26705287	      4.67097134	      0.52487991	      9.82584889
      0.03000000	     -9.27376568	     -0.30927591	    -11.75671795	     -0.99689230	      0.88287095	     -0.03120599	      7.37734112	     -2.54167490	      6.16526605	     -6.33536978	     12.55565868	      0.66572810	      4.86982785	     -6.10202098	    -14.20619337	     -7.94586211	     13.78973435	      5.25788656	      4.65000348	      0.50806345	      9.82990213
      0.04000000	     -9.25837516	     -0.31274992	    -11.73879021	     -0.99692486	      0.88281600	     -0.03123485	      7.38337264	     -2.54133501	      6.15191966	     -6.38458206	     12.63059727	      0.63362587	      4.90307224	     -6.11585492	    -14.14216936	     -8.03998508	     13.88919180	      5.20786749	      4.63591974	      0.49745806	      9.79882495
      0.05000000	     -9.25718675	     -0.32180852	    -11.72447233	     -0.99700134	      0.88274541	     -0.03125062	      7.40783223	     -2.53015045	      6.15255868	     -6.43469960	     12.67444395	      0.59569385	      4.95444447	     -6.14145315	    -14.05218051	     -8.13933330	     13.96285214	      5.14957323	      4.63020447	      0.49472969	      9.77680906
      0.06000000	     -9.24103495	     -0.32508946	    -11.72460006	     -0.99708956	      0.88270339	     -0.03121665	      7.41251196	     -2.52501319	      6.18189890	     -6.46817209	     12.68989262	      0.58694487	      4.97408907	     -6.15871041	    -13.97286931	     -8.20705126	     13.98949598	      5.13872458	      4.60371510	      0.47536620	      9.78895779
      0.07000000	     -9.25422855	     -0.34511210	    -11.68854687	     -0.99716655	      0.88259372	     -0.03123115	      7.45213635	     -2.49919494	      6.15202032	     -6.53070533	     12.77077194	      0.54157465	      5.04253644	     -6.20039960	    -13.87467826	     -8.30378969	     14.11793667	      5.08381167	      4.60859523	      0.47895275	      9.73416085
      0.08000000	     -9.24464076	     -0.35113733	    -11.68015960	     -0.99724884	      0.88254653	     -0.03120403	      7.46335025	     -2.49088542	      6.17989226	     -6.56710279	     12.77864363	      0.53105110	      5.06485352	     -6.21951499	    -13.79430648	     -8.35943004	     14.14035667	      5.07424730	      4.58724392	      0.46033717	      9.74388215
      0.09000000	     -9.27779706	     -0.37418915	    -11.63348134	     -0.99729841	      0.88242381	     -0.03122739	      7.51704692	     -2.45944283	      6.13085052	     -6.62238019	     12.84529412	      0.47851544	      5.13964519	     -6.26268834	    -13.69066043	     -8.42376459	     14.24811809	      5.02449524	      4.61513131	      0.46737789	      9.68569574
      0.10000000	     -9.27689379	     -0.38034267	    -11.62092605	     -0.99733828	      0.88238234	     -0.03120459	      7.52628161	     -2.45114721	      6.14775430	     -6.64341056	     12.84793727	      0.46951258	      5.15615498	     -6.27768482	    -13.63127585	     -8.45119235	     14.26331693	      5.01754627	      4.60558108	      0.44667077	      9.70079571
      0.11000000	     -9.29428049	     -0.39265578	    -11.59702218	     -0.99734127	      0.88231719	     -0.03120013	      7.54605500	     -2.43529104	      6.13798211	     -6.65849907	     12.87343238	      0.45186340	      5.17745837	     -6.29711190	    -13.55502052	     -8.45309107	     14.31297083	      5.00195843	      4.62058413	      0.43541429	      9.69979985
      0.12000000	     -9.29920872	     -0.39873035	    -11.58825791	     -0.99731182	      0.88229027	     -0.03116464	      7.54687783	     -2.42747553	      6.13561550	     -6.65891487	     12.87411849	      0.45080660	      5.17800052	     -6.30813807	    -13.55335082	     -8.44929561	     14.31464973	      5.00009506	      4.62382790	      0.41388198	      9.70037056
      0.13000000	     -9.35850791	     -0.41361154	    -11.54412219	     -0.99726242	      0.88219860	     -0.03120718	      7.59637097	     -2.40494665	      6.07326077	     -6.65822522	     12.87506948	      0.42158231	      5.22226165	     -6.32640699	    -13.45475391	     -8.40829352	     14.32422970	      4.95185775	      4.69146709	      0.41392349	      9.68073868
      0.14000000	     -9.37980375	     -0.42044870	    -11.52871807	     -0.99718550	      0.88217035	     -0.03120607	      7.59809549	     -2.39751877	      6.04569204	     -6.63541814	     12.87785130	      0.41895889	      5.22714622	     -6.33292276	    -13.45941512	     -8.38486117	     14.32264287	      4.94165561	      4.71897939	      0.39615539	      9.71324608
      0.15000000	     -9.43166169	     -0.42046250	    -11.51771756	     -0.99710472	      0.88211499	     -0.03118981	      7.63036604	     -2.38937768	      6.02435684	     -6.60552387	     12.84914856	      0.41862793	      5.24066675	     -6.33272232	    -13.43826155	     -8.31307657	     14.28930845	      4.90405333	      4.78383045	      0.37686460	      9.73524600
      0.16000000	     -9.46681832	     -0.42572780	    -11.50902304	     -0.99699160	      0.88207931	     -0.03116587	      7.63740832	     -2.37970301	      5.98557603	     -6.56746706	     12.84726258	      0.42132599	      5.23991604	     -6.33686688	    -13.45680116	     -8.25816723	     14.28149135	      4.89124171	      4.83195311	      0.35921645	      9.77102222
